#!OML:ASF I:\Actors\actors\Patient Classification 1\Patient 1\Session 1\Subject1.ASF
:FULLY-SPECIFIED
:DEGREES
522
root -1.40455 16.7888 8.09334 81.8062 -22.2531 -3.64968
lowerback 33.8021 -0.205415 9.14026
upperback 7.01746 2.67235 1.50392
thorax -9.0349 0.933511 -4.20204
lowerneck 0.889559 -2.21944 12.5426
upperneck -27.3832 -2.88668 -1.84274
head -8.98001 -2.76521 -2.49352
rclavicle 4.77083e-014 -4.37326e-015
rhumerus 93.1103 -7.4619 -90.203
rradius 19.7308
rwrist 38.6174
rhand -6.23675 -24.0066
rfingers 7.12502
rthumb 19.6048 -773.038
lclavicle 4.77083e-014 -4.37326e-015
lhumerus -85.6085 189.371 -88.1066
lradius 14.9527
lwrist -7.36496
lhand -40.0427 -23.4703
lfingers 7.12502
lthumb -13.009 6.10407
rfemur -83.7447 0.837787 53.618
rtibia -0.917812
rfoot 15.5549 44.8387
rtoes 17.4334
lfemur -77.9485 0.780797 18.1183
ltibia 4.03475
lfoot -5.03283 62.7235
ltoes -8.23465
523
root -1.39125 16.7875 8.09779 81.867 -22.1188 -3.66373
lowerback 33.4662 -0.108585 9.34307
upperback 7.23263 2.79863 1.5257
thorax -8.63921 1.01021 -4.31935
lowerneck 1.03435 -2.2847 12.6853
upperneck -27.5 -2.96374 -1.9188
head -9.05926 -2.81449 -2.53558
rclavicle 2.46493e-014 2.38542e-014
rhumerus 93.3029 -7.87243 -90.1297
rradius 19.8114
rwrist 37.6047
rhand -6.52541 -24.0679
rfingers 7.12502
rthumb 19.3272 -773.127
lclavicle 2.46493e-014 2.38542e-014
lhumerus -85.3164 189.582 -88.8447
lradius 15.2121
lwrist -6.24831
lhand -39.7535 -23.3635
lfingers 7.12502
lthumb -12.7301 6.22849
rfemur -83.6408 0.536485 55.3671
rtibia -1.23631
rfoot 16.3396 46.3048
rtoes 17.3355
lfemur -78.0874 0.864063 18.3838
ltibia 4.11846
lfoot -5.40204 62.8294
ltoes -7.88655
524
root -1.37361 16.7871 8.1013 81.8518 -22.0258 -3.67488
lowerback 33.6579 -0.0873199 9.48296
upperback 7.05198 2.90464 1.50618
thorax -8.88919 1.03837 -4.45753
lowerneck 1.26792 -2.34338 12.8591
upperneck -27.3037 -2.99828 -1.96596
head -9.04073 -2.82863 -2.575
rclavicle -8.5875e-014 -4.81059e-014
rhumerus 92.9577 -8.18876 -90.1851
rradius 19.9518
rwrist 36.7988
rhand -6.60087 -24.0395
rfingers 7.12502
rthumb 19.2547 -773.106
lclavicle -8.5875e-014 -4.81059e-014
lhumerus -85.5665 189.703 -89.5257
lradius 15.3583
lwrist -5.40682
lhand -39.4785 -23.4254
lfingers 7.12502
lthumb -12.4651 6.18288
rfemur -83.5285 0.212035 57.074
rtibia -1.50447
rfoot 16.8764 47.8647
rtoes 16.7482
lfemur -78.185 0.84803 18.5926
ltibia 4.18741
lfoot -5.15138 62.9788
ltoes -7.90572
525
root -1.34802 16.7869 8.09906 81.5335 -22.5096 -3.66355
lowerback 34.0626 0.0376025 9.08575
upperback 6.8839 2.96721 1.36211
thorax -9.24521 1.05241 -4.4384
lowerneck 1.53421 -2.40416 13.1821
upperneck -27.1121 -3.04988 -2.15504
head -9.03642 -2.8514 -2.68683
rclavicle -4.77083e-015 -3.00165e-014
rhumerus 92.5555 -8.50072 -90.3193
rradius 19.9806
rwrist 35.9754
rhand -6.95468 -23.5947
rfingers 7.12502
rthumb 18.9144 -772.695
lclavicle -4.77083e-015 -3.00165e-014
lhumerus -85.9926 189.858 -90.2051
lradius 15.4848
lwrist -4.83276
lhand -39.5093 -23.5923
lfingers 7.12502
lthumb -12.4948 6.01417
rfemur -83.407 -0.0424999 56.5585
rtibia -1.46502
rfoot 16.6636 47.8764
rtoes 16.1873
lfemur -78.0152 0.435078 18.1777
ltibia 4.23892
lfoot -4.72538 63.1918
ltoes -7.78756
526
root -1.31294 16.7851 8.08838 80.7307 -24.044 -3.51448
lowerback 34.5421 0.37293 7.76094
upperback 6.916 2.92453 0.958401
thorax -9.35401 1.05834 -4.13788
lowerneck 1.72835 -2.4546 13.6878
upperneck -27.1149 -3.10381 -2.43316
head -9.09513 -2.89782 -2.861
rclavicle -5.32743e-014 8.94531e-015
rhumerus 92.3298 -8.81681 -90.6188
rradius 19.8738
rwrist 35.59
rhand -6.91938 -26.2047
rfingers 7.12502
rthumb 18.9484 -775.302
lclavicle -5.32743e-014 8.94531e-015
lhumerus -86.315 190.18 -90.7368
lradius 15.6072
lwrist -4.47683
lhand -39.7247 -23.4848
lfingers 7.12502
lthumb -12.7024 6.10886
rfemur -83.3367 -0.525242 54.9616
rtibia -0.996713
rfoot 16.4868 47.8849
rtoes 15.65
lfemur -77.4343 -0.68581 16.6092
ltibia 4.23343
lfoot -3.52434 63.4572
ltoes -8.38849
527
root -1.28762 16.801 8.09543 81.1283 -22.566 -3.75517
lowerback 34.0097 0.141512 9.30637
upperback 6.80774 3.15737 1.29066
thorax -9.26688 1.1303 -4.69943
lowerneck 1.71866 -2.44673 13.9076
upperneck -27.0583 -3.07893 -2.47778
head -9.07861 -2.90038 -2.91499
rclavicle 4.37326e-014 7.81224e-014
rhumerus 92.0985 -8.91849 -90.9196
rradius 19.839
rwrist 35.2819
rhand -6.79287 -27.2369
rfingers 7.12502
rthumb 19.07 -776.322
lclavicle 4.37326e-014 7.81224e-014
lhumerus -86.5787 190.37 -91.1374
lradius 15.7215
lwrist -4.1191
lhand -39.825 -23.485
lfingers 7.12502
lthumb -12.7991 6.1026
rfemur -83.1009 -0.363605 56.4687
rtibia -1.58868
rfoot 16.3027 47.8837
rtoes 15.1505
lfemur -77.9852 0.293588 18.3398
ltibia 4.47678
lfoot -4.83624 63.5066
ltoes -7.07609
528
root -1.256 16.8137 8.09513 81.013 -22.1042 -3.82481
lowerback 33.8874 0.0951743 9.85881
upperback 6.67595 3.29933 1.42804
thorax -9.31292 1.17591 -4.89163
lowerneck 1.80593 -2.49699 14.0906
upperneck -27.0831 -3.14007 -2.56783
head -9.1156 -2.93958 -2.97039
rclavicle 2.46493e-014 3.47873e-014
rhumerus 91.6693 -9.1245 -91.0171
rradius 19.9251
rwrist 34.4722
rhand -6.42673 -26.9807
rfingers 7.12502
rthumb 19.4221 -776.031
lclavicle 2.46493e-014 3.47873e-014
lhumerus -87.0152 190.615 -91.331
lradius 15.7753
lwrist -3.78399
lhand -39.7255 -23.4561
lfingers 7.12502
lthumb -12.7031 6.1375
rfemur -82.8795 -0.473738 56.59
rtibia -1.79512
rfoot 15.9835 47.5725
rtoes 14.595
lfemur -78.0627 0.509546 18.9534
ltibia 4.60759
lfoot -6.17672 63.496
ltoes -5.96789
529
root -1.21825 16.8248 8.09048 80.6307 -22.0762 -3.81571
lowerback 33.8848 0.105362 10.0619
upperback 6.57343 3.3917 1.44791
thorax -9.39887 1.2057 -5.01187
lowerneck 1.95188 -2.59956 14.316
upperneck -27.197 -3.28455 -2.73452
head -9.20489 -3.01994 -3.05187
rclavicle 1.82882e-014 -2.62396e-014
rhumerus 91.0787 -9.47021 -90.9089
rradius 20.058
rwrist 33.6587
rhand -6.47572 -25.8661
rfingers 7.12502
rthumb 19.375 -774.921
lclavicle 1.82882e-014 -2.62396e-014
lhumerus -87.5792 190.947 -91.5248
lradius 15.7944
lwrist -3.55167
lhand -39.5648 -23.3
lfingers 7.12502
lthumb -12.5482 6.30319
rfemur -82.6533 -0.812883 56.8191
rtibia -1.84975
rfoot 15.722 47.8729
rtoes 13.59
lfemur -77.9023 0.309887 19.0841
ltibia 4.66575
lfoot -7.30954 63.4321
ltoes -4.81802
530
root -1.17807 16.8379 8.08343 80.2529 -22.0426 -3.75058
lowerback 33.7883 0.0996192 10.2835
upperback 6.44518 3.46509 1.46765
thorax -9.47819 1.22706 -5.13452
lowerneck 1.8781 -2.69294 14.4771
upperneck -27.0068 -3.44424 -2.84438
head -9.14435 -3.09239 -3.10212
rclavicle 2.70347e-014 -4.07509e-014
rhumerus 90.3763 -9.84784 -90.5115
rradius 20.1674
rwrist 33.0366
rhand -7.06309 -24.3016
rfingers 7.12502
rthumb 18.8101 -773.412
lclavicle 2.70347e-014 -4.07509e-014
lhumerus -88.2262 191.325 -91.704
lradius 15.7866
lwrist -3.44183
lhand -39.6458 -23.686
lfingers 7.12502
lthumb -12.6263 5.91237
rfemur -82.483 -1.16831 56.8194
rtibia -1.91481
rfoot 15.4606 47.889
rtoes 12.7783
lfemur -77.794 0.0572235 19.2079
ltibia 4.71015
lfoot -7.93968 63.3292
ltoes -3.9104
531
root -1.13752 16.8532 8.07526 79.8187 -22.0901 -3.67671
lowerback 33.7133 0.171231 10.3496
upperback 6.2908 3.58997 1.51468
thorax -9.60173 1.27137 -5.16784
lowerneck 1.71988 -2.79023 14.689
upperneck -26.686 -3.64426 -3.06133
head -9.02825 -3.17238 -3.19522
rclavicle 4.21423e-014 1.92821e-014
rhumerus 89.6044 -10.279 -89.8807
rradius 20.2742
rwrist 32.195
rhand -6.99787 -24.1251
rfingers 7.12502
rthumb 18.8729 -773.23
lclavicle 4.21423e-014 1.92821e-014
lhumerus -88.9401 191.81 -91.8822
lradius 15.7994
lwrist -3.06443
lhand -39.7059 -23.9539
lfingers 7.12502
lthumb -12.6842 5.64091
rfemur -82.2517 -1.55902 56.5254
rtibia -2.02874
rfoot 15.4718 47.5923
rtoes 12.7414
lfemur -77.6265 -0.266753 19.2415
ltibia 4.73527
lfoot -8.29394 63.1738
ltoes -3.22054
532
root -1.09342 16.8686 8.06417 79.0501 -22.6873 -3.50897
lowerback 33.806 0.284084 9.92683
upperback 6.22837 3.59199 1.3861
thorax -9.73532 1.27531 -5.09321
lowerneck 1.71763 -2.88739 14.9243
upperneck -26.6181 -3.82622 -3.32051
head -9.03119 -3.25356 -3.30822
rclavicle -3.33958e-014 -9.14409e-015
rhumerus 88.6654 -10.6917 -89.0087
rradius 20.608
rwrist 30.8864
rhand -6.68544 -24.7285
rfingers 7.12502
rthumb 19.1733 -773.803
lclavicle -3.33958e-014 -9.14409e-015
lhumerus -89.6464 192.259 -92.3583
lradius 15.9535
lwrist -2.1632
lhand -39.4253 -23.6512
lfingers 7.12502
lthumb -12.4137 5.96022
rfemur -81.9569 -2.25009 56.5685
rtibia -2.04046
rfoot 15.9948 48.1407
rtoes 12.8852
lfemur -77.1373 -1.12049 18.6483
ltibia 4.64439
lfoot -8.08688 63.0439
ltoes -3.00386
